<?xml version="1.0" encoding="iso-8859-1"?>
<!-- Generator: Adobe Illustrator 19.0.0, SVG Export Plug-In . SVG Version: 6.00 Build 0)  -->
<svg version="1.1" id="Capa_1" xmlns="http://www.w3.org/2000/svg" xmlns:xlink="http://www.w3.org/1999/xlink" x="0px" y="0px"
	 viewBox="0 0 512.028 512.028" style="enable-background:new 0 0 512.028 512.028;" xml:space="preserve">
<path style="fill:#D81B60;" d="M468.635,316.203C456.325,283.733,345.605,0,256.005,0S55.685,283.733,43.589,315.733
	C16.027,378.112,7.557,429.525,55.707,477.675c45.819,45.805,120.091,45.805,165.909,0c10.283-10.261,22.165-22.72,34.368-36.629
	c12.203,13.888,24.085,26.325,34.368,36.629c45.819,45.805,120.091,45.805,165.909,0
	C504.453,429.483,495.984,378.069,468.635,316.203z M192.005,277.333c-3.08-32.266,20.579-60.92,52.845-64
	c3.71-0.354,7.445-0.354,11.155,0c32.266-3.08,60.92,20.579,64,52.845c0.354,3.71,0.354,7.445,0,11.155
	c0,33.835-22.763,79.744-64,130.645C214.768,357.077,192.005,311.168,192.005,277.333z M441.221,462.549
	c-37.488,37.477-98.256,37.477-135.744,0c-12.8-12.8-24.64-25.451-35.52-37.952c36.395-44.352,71.381-99.392,71.381-147.264
	c3.447-43.682-29.171-81.887-72.852-85.333c-4.154-0.328-8.327-0.328-12.481,0c-43.682-3.447-81.887,29.171-85.333,72.852
	c-0.328,4.154-0.328,8.327,0,12.481c0,47.872,34.987,102.912,71.403,147.2c-10.837,12.444-22.677,25.095-35.52,37.952
	c-37.488,37.477-98.256,37.477-135.744,0c-35.221-35.2-37.227-71.381-7.509-138.667C107.845,206.933,199.536,21.333,256.005,21.333
	s148.16,185.6,192.917,302.933C478.448,391.168,476.443,427.328,441.221,462.549z"/>
<path d="M373.339,512c-31.117,0.056-60.974-12.289-82.965-34.304c-10.283-10.283-22.165-22.699-34.368-36.629
	c-12.203,13.909-24.085,26.347-34.368,36.629c-45.85,45.748-120.08,45.748-165.931,0c-48.171-48.235-39.701-99.648-12.139-161.963
	C55.685,283.84,166.405,0,256.005,0s200.32,283.84,212.629,316.203c27.349,61.867,35.84,113.259-12.331,161.429
	C434.323,499.67,404.465,512.039,373.339,512z M269.957,424.533c10.823,12.444,22.656,25.095,35.499,37.952
	c37.49,37.491,98.274,37.491,135.764,0.001c0,0,0.001-0.001,0.001-0.001c35.221-35.221,37.227-71.403,7.68-138.24
	C404.165,206.933,312.475,21.333,256.005,21.333s-148.181,185.6-192.704,302.464c-29.76,67.371-27.733,103.552,7.488,138.667
	c37.49,37.491,98.274,37.491,135.764,0.001c0,0,0.001-0.001,0.001-0.001c12.8-12.8,24.633-25.451,35.499-37.952
	c-36.395-44.245-71.381-99.285-71.381-147.179c-3.447-43.682,29.171-81.887,72.852-85.333c4.154-0.328,8.327-0.328,12.481,0
	c43.682-3.447,81.887,29.171,85.333,72.852c0.328,4.154,0.328,8.327,0,12.481C341.339,325.227,306.352,380.267,269.957,424.533z
	 M256.005,213.333c-32.279-3.067-60.933,20.613-64,52.892c-0.351,3.694-0.351,7.414,0,11.108c0,33.856,22.784,79.765,64,130.667
	c41.216-50.901,64-96.811,64-130.667c3.067-32.279-20.613-60.933-52.892-64C263.419,212.982,259.7,212.982,256.005,213.333z"/>
<g>
</g>
<g>
</g>
<g>
</g>
<g>
</g>
<g>
</g>
<g>
</g>
<g>
</g>
<g>
</g>
<g>
</g>
<g>
</g>
<g>
</g>
<g>
</g>
<g>
</g>
<g>
</g>
<g>
</g>
</svg>
