<svg id="Layer_1" enable-background="new 0 0 511.999 511.999" height="512" viewBox="0 0 511.999 511.999" width="512" xmlns="http://www.w3.org/2000/svg"><g><path d="m270.411 343.172h-35.411l-5.198 3.655v48.028l3.695 3.431h37.773l3.266-3.431v-48.028z" fill="#cbe2ff"/><path d="m252.169 346.827 5.198-3.655h-22.367l-5.198 3.655v48.028l3.695 3.431h22.367l-3.695-3.431z" fill="#9dc6fb"/><path d="m343.05 504.732-38.896-66.142-1.979-2.916h-97.352l-4.639 2.916-38.896 66.142c-1.891 3.215.428 7.267 4.157 7.267h28.647c1.709 0 3.291-.904 4.157-2.378l36.751-62.494h34.338l36.752 62.495c.866 1.473 2.448 2.378 4.157 2.378h28.647c3.729-.001 6.047-4.053 4.156-7.268z" fill="#cbe2ff"/><path d="m265.432 435.673v11.454h3.906l36.752 62.495c.866 1.473 2.448 2.378 4.157 2.378h16.652l-44.385-76.326h-17.082z" fill="#9dc6fb"/><g><path d="m180.604 504.732 38.896-66.142 4.639-2.916h-19.316l-4.639 2.916-38.896 66.142c-1.891 3.215.428 7.267 4.157 7.267h19.316c-3.73 0-6.048-4.052-4.157-7.267z" fill="#9dc6fb"/></g><path d="m442.204 0h-380.07c-23.522 0-42.661 19.138-42.661 42.661v261.506c0 23.523 19.138 42.661 42.661 42.661h380.07c23.523 0 42.661-19.138 42.661-42.661v-261.506c0-23.523-19.138-42.661-42.661-42.661z" fill="#bd7b62"/><path d="m57.075 304.167v-261.506c0-23.523 19.138-42.661 42.66-42.661h-37.601c-23.522 0-42.661 19.138-42.661 42.661v261.506c0 23.523 19.138 42.661 42.661 42.661h37.601c-23.522-.001-42.66-19.138-42.66-42.661z" fill="#ad6a50"/><path d="m390.438 120.189c-7.44 0-13.278-.954-18.204-2.452-7.847-2.386-15.759 3.507-15.759 11.709v41.823c0 8.182-6.287 15.222-14.46 15.607-8.726.411-15.93-6.542-15.93-15.178v-37.792c0-.559-.453-1.012-1.012-1.012-.372 0-.705.209-.884.534-2.8 5.08-8.407 8.396-14.739 7.812-7.881-.725-13.755-7.643-13.755-15.558 0-9.067-9.479-14.909-17.645-10.967-6.459 3.118-14.198 5.473-25.888 5.473-34.568 0-34.568-20.604-69.135-20.604-34.566 0-34.566 20.604-69.132 20.604-31.681 0-34.345-17.296-61.179-20.185v60.029c31.746 9.269 27.313 28.889 60.625 37.71 34.017 9.008 39.386-11.269 73.403-2.261 34.019 9.008 28.65 29.285 62.668 38.293 33.883 8.972 39.354-11.097 73.011-2.357l4.482 3.938 67.471 34.83 8.575 1.982c17.978-.266 26.975-9.71 48.672-6.174v-165.99c-26.837 2.889-29.501 20.186-61.185 20.186z" fill="#80b4fb"/><path d="m94.08 117.211c-14.894-5.076-21.535-15.073-41.364-17.208v60.029c23.695 6.918 27.24 19.602 41.364 29.259z" fill="#61a2f9"/><path d="m440.541 33.242h-376.744c-6.12 0-11.081 4.961-11.081 11.081v57.741c26.834 2.889 29.497 20.186 61.179 20.186 34.566 0 34.566-20.604 69.132-20.604 34.567 0 34.567 20.604 69.135 20.604 11.705 0 19.449-2.361 25.913-5.485 8.152-3.94 17.62 1.897 17.62 10.952 0 8.305 6.468 15.42 14.77 15.646 5.912.161 11.075-3.066 13.725-7.873.179-.325.512-.534.884-.534.559 0 1.012.453 1.012 1.012v37.362c0 8.182 6.287 15.222 14.46 15.607 8.726.411 15.93-6.542 15.93-15.178v-42.252c0-8.202 7.912-14.094 15.759-11.709 4.926 1.498 10.765 2.452 18.204 2.452 31.685 0 34.348-17.297 61.185-20.186v-57.741c-.002-6.119-4.963-11.081-11.083-11.081z" fill="#ffe07d"/><path d="m94.08 48.959c0-5.57 1.129-10.88 3.167-15.717h-33.45c-6.12 0-11.081 4.961-11.081 11.081v57.741c19.829 2.135 26.47 12.131 41.364 17.208z" fill="#ffc250"/><path d="m402.951 270.108-8.317 3.184-64.901-37.513-7.309-6.421c-33.656-8.74-39.128 11.329-73.011 2.357-34.018-9.008-28.649-29.285-62.668-38.293-34.017-9.008-39.386 11.269-73.403 2.261-33.313-8.821-28.88-28.441-60.625-37.71v144.532c0 6.12 4.961 11.081 11.081 11.081h280.289l5.901-2.95h55.593l7.474 2.95h27.489c6.119 0 11.08-4.961 11.08-11.081v-38.571c-21.699-3.537-30.696 5.908-48.673 6.174z" fill="#95d6a4"/><path d="m94.08 297.869v-110.637c-14.124-9.657-17.669-22.341-41.364-29.259v144.532c0 6.12 4.961 11.081 11.081 11.081h33.45c-2.039-4.837-3.167-10.148-3.167-15.717z" fill="#78c2a4"/><path d="m399.298 291.753-3.892-.519-35.112 21.29-1.075 4.481 14.511 23.032 3.476-.127 35.369-21.119 1.234-4.005z" fill="#cbe2ff"/><path d="m381.571 302.922-1.893-2.152-19.384 11.754-1.075 4.481 14.511 23.032 3.476-.127 19.748-11.792z" fill="#9dc6fb"/><path d="m373.73 340.037 95.725 132.453c1.431 1.981 4.155 2.508 6.222 1.206l14.686-9.253c2.067-1.302 2.767-3.987 1.598-6.133l-78.152-143.524z" fill="#f9f6f9"/><path d="m479.365 463.101-83.607-136.943-22.028 13.879 95.725 132.453c1.431 1.981 4.155 2.508 6.222 1.206l10.497-6.614c-4.752-.548-6.809-3.981-6.809-3.981z" fill="#cbe2ff"/><path d="m332.547 219.627c-4.395-1.462-8.994 1.435-9.572 6.031-2.534 20.116-14.872 50.306-3.389 68.532 13.714 21.767 39.633 22.815 39.633 22.815l40.079-25.251s10.244-23.832-3.47-45.599c-11.484-18.227-44.042-20.129-63.281-26.528z" fill="#ffe07d"/><path d="m348.888 275.729c-10.129-16.077-8.438-37.23-9.03-53.992-2.583-.664-5.042-1.355-7.311-2.109-4.395-1.462-8.993 1.435-9.572 6.031-2.534 20.116-14.872 50.306-3.389 68.532 13.714 21.767 39.633 22.815 39.633 22.815l22.353-14.083c-.001-.001-18.97-5.427-32.684-27.194z" fill="#ffc250"/><path d="m266.205 435.673h-28.416l-2.789 3.916v67.588c0 2.663 2.159 4.822 4.822 4.822h24.694c2.663 0 4.822-2.159 4.822-4.822v-67.588z" fill="#cbe2ff"/><path d="m252.169 507.177v-67.588l2.789-3.916h-17.169l-2.789 3.916v67.588c0 2.663 2.159 4.822 4.822 4.822h17.169c-2.663 0-4.822-2.159-4.822-4.822z" fill="#9dc6fb"/><path d="m299.549 394.855h-94.76c-6.181 0-11.192 5.011-11.192 11.192v22.349c0 6.182 5.011 11.193 11.192 11.193h94.76c6.182 0 11.192-5.011 11.192-11.193v-22.349c0-6.181-5.011-11.192-11.192-11.192z" fill="#f9f6f9"/><path d="m240.363 428.396v-22.349c0-6.182 5.011-11.192 11.192-11.192h-46.766c-6.181 0-11.192 5.011-11.192 11.192v22.349c0 6.182 5.011 11.193 11.192 11.193h46.766c-6.181 0-11.192-5.011-11.192-11.193z" fill="#cbe2ff"/></g></svg>