<svg id="Capa_1" enable-background="new 0 0 512 512" height="512" viewBox="0 0 512 512" width="512" xmlns="http://www.w3.org/2000/svg"><g><path d="m497 273h-18v-49c0-2.719-.739-5.387-2.138-7.718l-25.101-41.834c7-8.209 11.239-18.84 11.239-30.448 0-25.916-21.084-47-47-47s-47 21.084-47 47c0 29.876 27.68 52.333 57.051 45.907l22.949 38.248v44.845h-98v-49c0-38.123-17.407-77.601-49.26-97.756 15.433-13.034 25.26-32.509 25.26-54.244 0-39.383-31.893-72-71-72-39.067 0-71 32.582-71 72 0 21.735 9.827 41.21 25.26 54.244-31.861 20.16-49.26 59.646-49.26 97.756v49h-98v-44.845l22.949-38.249c29.41 6.435 57.051-16.082 57.051-45.906 0-25.916-21.084-47-47-47s-47 21.084-47 47c0 11.608 4.239 22.239 11.239 30.448l-25.101 41.834c-1.399 2.331-2.138 4.999-2.138 7.718v49h-18c-8.284 0-15 6.716-15 15v80c0 8.284 6.716 15 15 15h50v114c0 8.284 6.716 15 15 15s15-6.716 15-15v-114h322v114c0 8.284 6.716 15 15 15s15-6.716 15-15v-114h50c8.284 0 15-6.716 15-15v-80c0-8.284-6.716-15-15-15zm-98-129c0-9.374 7.626-17 17-17s17 7.626 17 17-7.626 17-17 17-17-7.626-17-17zm-303-17c9.374 0 17 7.626 17 17s-7.626 17-17 17-17-7.626-17-17 7.626-17 17-17zm119-55c0-22.767 18.775-42 41-42s41 19.233 41 42c0 22.607-18.393 41-41 41s-41-18.393-41-41zm-24 152c0-39.816 24.313-81 65-81s65 41.184 65 81v49h-130zm291 129h-452v-50h452z"/><path d="m320 433h-128c-8.284 0-15 6.716-15 15s6.716 15 15 15h128c8.284 0 15-6.716 15-15s-6.716-15-15-15z"/></g></svg>